<svg width="20" height="30" viewBox="0 0 20 30" fill="none" xmlns="http://www.w3.org/2000/svg">
<path fill-rule="evenodd" clip-rule="evenodd" d="M13.3815 6.25L13.3815 8.75L11.8047 8.75L11.8047 6.25L13.3815 6.25ZM10.228 11.25L10.228 8.75L11.8047 8.75L11.8047 11.25L10.228 11.25ZM8.65124 13.75L8.65124 11.25L10.228 11.25L10.228 13.75L8.65124 13.75ZM8.65124 16.25L7.07449 16.25L7.07449 13.75L8.65124 13.75L8.65124 16.25ZM10.228 18.75L10.228 16.25L8.65124 16.25L8.65124 18.75L10.228 18.75ZM10.228 18.75L11.8047 18.75L11.8047 21.25L10.228 21.25L10.228 18.75ZM13.3815 23.75L13.3815 21.25L11.8047 21.25L11.8047 23.75L13.3815 23.75Z" fill="white"/>
</svg>
