<svg width="20" height="30" viewBox="0 0 20 30" fill="none" xmlns="http://www.w3.org/2000/svg">
<path fill-rule="evenodd" clip-rule="evenodd" d="M6.61865 23.75L6.61865 21.25L8.1954 21.25L8.1954 23.75L6.61865 23.75ZM6.61865 6.25L6.61865 8.75L8.1954 8.75L8.1954 6.25L6.61865 6.25ZM8.1954 8.75L8.1954 11.25L9.77214 11.25L9.77214 8.75L8.1954 8.75ZM11.3489 13.75L11.3489 11.25L9.77214 11.25L9.77214 13.75L11.3489 13.75ZM11.3489 16.25L12.9256 16.25L12.9256 13.75L11.3489 13.75L11.3489 16.25ZM11.3489 16.25L9.77214 16.25L9.77214 18.75L11.3489 18.75L11.3489 16.25ZM8.1954 21.25L8.1954 18.75L9.77214 18.75L9.77214 21.25L8.1954 21.25Z" fill="white"/>
</svg>
