<svg width="20" height="20" viewBox="0 0 20 20" fill="none" xmlns="http://www.w3.org/2000/svg">
<path fill-rule="evenodd" clip-rule="evenodd" d="M16 0H14V6H16V5.99992H18V5.99984H20V3.99984H18V1.99992H16V0ZM12 1.99992H14V3.99992H12V5.99984H10V3.99984H12V1.99992ZM8 6.00016H10V8.00016H8V10.0001H6V12H4V13.9998H6V15.9998H4V13.9999H2V18.0001H6V16.0002H8V18.0002H6V20.0001H0V19.9998V18.0001V13.9998H2V11.9999H4V10H6V8.00008H8V6.00016ZM8 13.9998H10V11.9999H12V10H14V8.00008H16V6.00016H18V8.00016H16V10.0001H14V12H12V13.9999H10V15.9998H8V13.9998Z" fill="white"/>
</svg>
