<svg width="23" height="24" viewBox="0 0 23 24" fill="none" xmlns="http://www.w3.org/2000/svg">
<g clip-path="url(#clip0_245_474)">
<path fill-rule="evenodd" clip-rule="evenodd" d="M18.0317 2H16.0317V4H14.0317V6H12.0317V8H10.0317V10H8.03168V12H6.03168V14H4.03168V16H2.03168V20V22H4.03168H8.03168V20H10.0317V18H12.0317V16H14.0317V14H16.0317V12H18.0317V10H20.0317V8H22.0317V6H20.0317V4H18.0317V2ZM18.0317 10H16.0317V12H14.0317V14H12.0317V16H10.0317V18H8.03168V16H6.03168V14H8.03168V12H10.0317V10H12.0317V8H14.0317V6H16.0317V8H18.0317V10ZM6.03168 16H4.03168V20H8.03168V18H6.03168V16Z" fill="#252525"/>
</g>
<defs>
<clipPath id="clip0_245_474">
<rect width="22.3161" height="24" fill="white" transform="translate(0.0316772)"/>
</clipPath>
</defs>
</svg>
